<?xml version="1.0" encoding="UTF-8"?>
<svg id="Layer_1" xmlns="http://www.w3.org/2000/svg" version="1.1" viewBox="0 0 162.4 34.3">
  <!-- Generator: Adobe Illustrator 30.2.1, SVG Export Plug-In . SVG Version: 2.1.1 Build 1)  -->
  <defs>
    <style>
      .st0 {
        fill: #f17922;
      }

      .st0, .st1, .st2 {
        fill-rule: evenodd;
      }

      .st3 {
        fill: #6e6f71;
      }

      .st4, .st2 {
        fill: #ea2128;
      }

      .st5 {
        fill: #f28021;
      }

      .st6 {
        fill: #231f20;
      }

      .st7 {
        isolation: isolate;
      }

      .st1 {
        fill: #fab716;
      }
    </style>
  </defs>
  <g class="st7">
    <g id="Layer_2">
      <g id="Layer_1-2">
        <g>
          <g>
            <path class="st3" d="M72.4,24.3c0,0-.2,0-.2,0-.3,0-.5.2-.5.6v1.6h-.7v-2.7h.7v.4c.1-.3.3-.5.6-.5h.2v.7h0ZM69.9,24.7c0-.2,0-.4,0-.5,0-.1-.1-.1-.3-.1s-.2,0-.3.1c0,.1,0,.3,0,.5h.7ZM70.6,25.1h-1.4c0,.3,0,.6,0,.7s.2.2.3.2c.2,0,.3-.2.3-.5h.7c0,.3,0,.5-.3.7-.2.2-.4.3-.7.3s-.7-.1-.8-.4c-.2-.2-.2-.6-.2-1.1s0-.9.3-1.1c.2-.2.4-.3.8-.3s.7.1.8.4c.1.2.2.6.2,1.1h0ZM68.2,26.4h-.7v-2.7h.7v2.7ZM68.2,23.3h-.7v-.6h.7v.6ZM67.2,26.4c-.2,0-.3,0-.4,0-.3,0-.5,0-.6-.1,0,0-.1-.2-.1-.5v-1.7h-.3v-.5h.3v-.8h.7v.8h.4v.5h-.4v1.5c0,.1,0,.2,0,.3,0,0,.1,0,.2,0s0,0,.1,0v.5h0ZM65.7,25.6c0,.3,0,.5-.3.6s-.4.2-.7.2-.6,0-.7-.2c-.2-.1-.3-.4-.3-.8h.6c0,.3.1.5.4.5s.2,0,.2,0c0,0,0-.1,0-.2s0-.2-.1-.2-.2-.1-.5-.2c-.3,0-.5-.2-.6-.3-.1-.1-.2-.3-.2-.5s0-.5.2-.6c.2-.1.4-.2.7-.2s.6,0,.7.2c.1.1.2.4.2.6h-.6c0-.2,0-.3,0-.3s-.1,0-.2,0c-.2,0-.3.1-.3.3s0,.2.2.2c0,0,.2,0,.4.2.2,0,.4.2.5.2.2.1.3.3.3.6h0ZM62.7,25.5v-.6s0,0-.2.1c-.1,0-.2,0-.3.1-.2,0-.2.2-.2.4s0,.4.3.4.2,0,.3-.1c0,0,.1-.2.1-.3h0ZM63.5,26.4h-.6c-.1,0-.2-.1-.2-.3h0c-.1.2-.4.3-.7.3-.5,0-.7-.3-.7-.8s0-.5.2-.6c.1-.1.3-.2.6-.3.2,0,.4-.1.5-.1,0,0,.1-.1.1-.2,0-.2-.1-.4-.3-.4s-.4.1-.4.4h-.6c0-.3,0-.5.2-.7.2-.2.4-.2.8-.2s.6,0,.8.2c.2.1.2.3.2.6v1.6c0,.1,0,.2,0,.2s0,0,0,0c0,0,0,.1,0,.2h0ZM61.1,23.4h-.8v3h-.7v-3h-.8v-.6h2.3s0,.6,0,.6ZM57.2,26.5h-.4v-2.8h.4v2.8ZM55.3,24.3c0,0-.2,0-.2,0-.3,0-.5.2-.5.6v1.6h-.7v-2.7h.7v.4c.1-.3.3-.5.6-.5h.2v.7h0ZM52.8,24.7c0-.2,0-.4,0-.5,0-.1-.1-.1-.3-.1s-.2,0-.3.1c0,.1,0,.3,0,.5h.7ZM53.5,25.1h-1.4c0,.3,0,.6,0,.7s.2.2.3.2c.2,0,.3-.2.3-.5h.7c0,.3,0,.5-.3.7-.2.2-.4.3-.7.3s-.7-.1-.8-.4c-.2-.2-.2-.6-.2-1.1s0-.9.3-1.1c.2-.2.4-.3.8-.3s.7.1.8.4c.1.2.2.6.2,1.1h0ZM51.2,26.4c-.2,0-.3,0-.4,0-.3,0-.5,0-.6-.1,0,0-.1-.2-.1-.5v-1.7h-.3v-.5h.3v-.8h.7v.8h.4v.5h-.4v1.5c0,.1,0,.2,0,.3,0,0,.1,0,.2,0s0,0,.1,0v.5h0ZM49.8,26.4c-.2,0-.3,0-.4,0-.3,0-.5,0-.6-.1,0,0-.1-.2-.1-.5v-1.7h-.3v-.5h.3v-.8h.7v.8h.4v.5h-.4v1.5c0,.1,0,.2,0,.3,0,0,.1,0,.2,0s0,0,.1,0v.5h0ZM47.5,24.7c0-.2,0-.4,0-.5,0-.1-.1-.1-.3-.1s-.2,0-.3.1c0,.1,0,.3,0,.5h.7ZM48.2,25.1h-1.4c0,.3,0,.6,0,.7s.2.2.3.2c.2,0,.3-.2.3-.5h.7c0,.3,0,.5-.3.7-.2.2-.4.3-.7.3s-.7-.1-.8-.4c-.2-.2-.2-.6-.2-1.1s0-.9.3-1.1c.2-.2.4-.3.8-.3s.7.1.8.4c.1.2.2.6.2,1.1h0ZM45,25.3c0-.4-.2-.5-.5-.5h-.3v1.1h.4c.3,0,.5-.2.5-.5ZM45,23.8c0-.3-.1-.5-.4-.5h-.4v1h.3c.1,0,.2,0,.3-.1,0,0,.1-.2.1-.4ZM45.8,25.4c0,.3,0,.6-.3.8s-.4.3-.8.3h-1.3v-3.6h1.3c.3,0,.5,0,.7.2.2.2.3.4.3.7s0,.4-.2.6c-.1.1-.2.2-.4.2h0c.2,0,.3,0,.4.2.2.2.2.4.2.7h0ZM41.6,26.5h-.4v-2.8h.4v2.8ZM39.7,24.3c0,0-.2,0-.2,0-.3,0-.5.2-.5.6v1.6h-.7v-2.7h.7v.4c.1-.3.3-.5.6-.5h.2v.7h0ZM37.2,24.7c0-.2,0-.4,0-.5,0-.1-.1-.1-.3-.1s-.2,0-.3.1c0,.1,0,.3,0,.5h.7ZM37.9,25.1h-1.4c0,.3,0,.6,0,.7s.2.2.3.2c.2,0,.3-.2.3-.5h.7c0,.3,0,.5-.3.7-.2.2-.4.3-.7.3s-.7-.1-.8-.4c-.2-.2-.2-.6-.2-1.1s0-.9.3-1.1c.2-.2.4-.3.8-.3s.7.1.8.4c.1.2.2.6.2,1.1h0ZM34.8,25c0-.6-.1-.9-.4-.9s-.4.3-.4.9,0,.5,0,.7c0,.2.2.2.3.2s.2,0,.3-.2c0-.1,0-.4,0-.7h0ZM35.4,26.4h-.7v-.3c-.1.3-.3.4-.6.4-.6,0-.9-.5-.9-1.4s0-1,.2-1.2c.1-.2.3-.3.6-.3s.3,0,.4.1c0,0,.2.2.2.2h0v-1.2h.7v3.6h0ZM32.9,26.4h-.7v-1.9c0-.3,0-.4-.3-.4s-.2,0-.2.1c0,0-.1.2-.1.3v1.9h-.7v-2.7h.7v.3c.1-.3.4-.4.7-.4s.7.2.7.7v2.1h0ZM29.9,24.7c0-.2,0-.4,0-.5,0-.1-.1-.1-.3-.1s-.2,0-.3.1c0,.1,0,.3,0,.5h.7ZM30.5,25.1h-1.4c0,.3,0,.6,0,.7s.2.2.3.2c.2,0,.3-.2.3-.5h.7c0,.3,0,.5-.3.7-.2.2-.4.3-.7.3s-.7-.1-.8-.4c-.2-.2-.2-.6-.2-1.1s0-.9.3-1.1c.2-.2.4-.3.8-.3s.7.1.8.4c.1.2.2.6.2,1.1h0ZM28.3,23.4h-.8v3h-.7v-3h-.8v-.6h2.3s0,.6,0,.6Z"/>
            <path class="st2" d="M3.4,29.6c52.9,7,104.3-14.9,156.2-1.6v4.2H3.4v-2.6Z"/>
            <path class="st1" d="M3.4,30.2c52.9,5.3,104.3-12.3,156.2-2.2v4.6H3.4v-2.4h0Z"/>
            <g>
              <rect class="st6" x="90.4" y="28.8" width="1.3" height="1.3"/>
              <path class="st6" d="M145.7,30.9h-1.7v-2.9h1.6v.5h-1.1v.7h1v.5h-1v.8h1.1v.5h0ZM147.9,30.9h-.4v-.3c-.1.2-.3.4-.6.4s-.6-.1-.7-.4c-.1-.2-.2-.6-.2-1.2s0-.9.2-1.2.4-.4.8-.4c.6,0,.9.3.9.9h-.6c0-.3-.1-.5-.4-.5s-.3.1-.3.3c0,.1,0,.4,0,.8s0,.8,0,.9.2.2.3.2.2,0,.3-.2c0-.1,0-.3,0-.6h-.4v-.4h1v1.6h0ZM150.1,30.9h-.4v-.3c-.1.2-.3.4-.6.4s-.6-.1-.7-.4c-.1-.2-.2-.6-.2-1.2s0-.9.2-1.2.4-.4.8-.4c.6,0,.9.3.9.9h-.6c0-.3-.1-.5-.4-.5s-.3.1-.3.3c0,.1,0,.4,0,.8s0,.8,0,.9.2.2.3.2.2,0,.3-.2c0-.1,0-.3,0-.6h-.4v-.4h1v1.6h0ZM152.3,30.1c0,.6-.3.9-1,.9s-.5,0-.7-.2c-.2-.1-.2-.4-.2-.8h.6c0,.4.1.5.4.5s.2,0,.3-.1c0,0,.1-.2.1-.3s0-.2,0-.3c0,0-.1-.1-.2-.1-.1,0-.2,0-.3-.1-.2-.1-.4-.2-.4-.3-.1-.1-.2-.3-.2-.5,0-.6.3-.9.9-.9s.6,0,.7.2c.1.1.2.4.2.6h-.6c0-.3-.1-.4-.3-.4s-.2,0-.2,0c0,0,0,.1,0,.2s0,.2.1.3c0,0,.2.1.3.2.3.1.5.2.6.2.2.1.3.4.3.6h0Z"/>
              <rect class="st6" x="140.6" y="28.8" width="1.3" height="1.3"/>
              <path class="st6" d="M127.9,30.9h-.6v-2.4l-.5,2.4h-.5l-.5-2.4v2.4h-.6v-2.9h.9l.4,2.1h0l.4-2.1h.9v2.9h0ZM130.1,29.9c0,.4,0,.6-.2.8-.1.2-.4.2-.7.2s-.6,0-.7-.2c-.2-.2-.2-.4-.2-.8v-2h.6v2c0,.2,0,.4,0,.4,0,0,.1.1.3.1s.2,0,.3-.1c0,0,0-.2,0-.4v-2h.6v2h0ZM132.2,28.5h-.6v2.4h-.6v-2.4h-.6v-.5h1.9v.5h0ZM134.1,28.5h-.6v2.4h-.6v-2.4h-.6v-.5h1.9v.5h0ZM136.3,29.4c0,.6,0,1-.2,1.2-.1.2-.4.4-.8.4s-.7-.1-.8-.4c-.1-.2-.2-.6-.2-1.2s0-1,.2-1.2c.1-.2.4-.3.8-.3s.6.1.8.3c.2.2.2.6.2,1.2h0ZM135.7,29.4c0-.4,0-.8,0-.9,0-.1-.1-.2-.3-.2s-.2,0-.3.2,0,.5,0,.9,0,.7,0,.9c0,.1.2.2.3.2s.2,0,.3-.2c0-.2,0-.5,0-.9h0ZM138.6,30.9h-.7l-.7-2.1v2.1h-.6v-2.9h.7l.7,2.1h0v-2.1h.6v2.9h0Z"/>
              <rect class="st6" x="121.9" y="28.8" width="1.3" height="1.3"/>
              <path class="st6" d="M114.6,28.5h-1.1v.7h1v.5h-1v1.3h-.6v-2.9h1.6v.5h0ZM115.4,30.9h-.6v-2.9h.6v2.9ZM117.6,30.1c0,.6-.3.9-1,.9s-.5,0-.7-.2c-.2-.1-.2-.4-.2-.8h.6c0,.4.1.5.4.5s.2,0,.3-.1c0,0,.1-.2.1-.3s0-.2,0-.3c0,0-.1-.1-.2-.1-.1,0-.2,0-.3-.1-.2-.1-.4-.2-.4-.3-.1-.1-.2-.3-.2-.5,0-.6.3-.9.9-.9s.6,0,.7.2c.1.1.2.4.2.6h-.6c0-.3-.1-.4-.3-.4s-.2,0-.2,0c0,0,0,.1,0,.2s0,.2.1.3c0,0,.2.1.3.2.3.1.5.2.6.2.2.1.3.4.3.6h0ZM119.8,30.9h-.6v-1.3h-.7v1.3h-.6v-2.9h.6v1.1h.7v-1.1h.6s0,2.9,0,2.9Z"/>
              <rect class="st6" x="109.6" y="28.8" width="1.3" height="1.3"/>
              <path class="st6" d="M95.7,29.8c0,.8-.3,1.2-.9,1.2s-.6-.1-.8-.3-.2-.6-.2-1.2,0-1,.2-1.2c.1-.2.4-.4.8-.4s.6.1.8.3c.1.2.2.4.2.7h-.6c0-.2,0-.3,0-.4,0-.1-.1-.2-.3-.2s-.3,0-.3.3c0,.1,0,.4,0,.8s0,.7,0,.9c0,.1.2.2.3.2s.2,0,.3-.2,0-.3,0-.6h.6ZM97.8,30.9h-.6v-1.3h-.7v1.3h-.6v-2.9h.6v1.1h.7v-1.1h.6s0,2.9,0,2.9ZM98.8,30.9h-.6v-2.9h.6v2.9ZM101.1,29.8c0,.8-.3,1.2-.9,1.2s-.6-.1-.8-.3-.2-.6-.2-1.2,0-1,.2-1.2c.1-.2.4-.4.8-.4s.6.1.8.3c.1.2.2.4.2.7h-.6c0-.2,0-.3,0-.4,0-.1-.1-.2-.3-.2s-.3,0-.3.3c0,.1,0,.4,0,.8s0,.7,0,.9c0,.1.2.2.3.2s.2,0,.3-.2,0-.3,0-.6h.6,0ZM103.5,30.9h-.7l-.6-1.2-.2.3v.9h-.6v-2.9h.6v1.3h0l.8-1.3h.6l-.8,1.3.9,1.7h0ZM105.3,30.9h-1.7v-2.9h1.6v.5h-1.1v.7h1v.5h-1v.8h1.1v.5h0ZM107.5,30.9h-.7l-.7-2.1v2.1h-.6v-2.9h.7l.7,2.1h0v-2.1h.6v2.9h0Z"/>
            </g>
          </g>
          <g>
            <g>
              <g>
                <path class="st2" d="M67,4.8c1.3,0,1.7-2.3.8-2.2-1.2,0-1.1-.9-1.9-1-.4,0-.5,0-.8.1-.5-2.2-4.1-2.2-4.1.1s.6,1.4,1.1,1.6c.3.2,1.6,1.4,1.6,1.4,1.8-1.5,2.8,0,3.3,0Z"/>
                <path class="st2" d="M63.2,6.1c-.7,0-1.4.2-1.9.8,1,0,1.6.6,2,.6.2,0,.2,0,.2-.3v-.7c0-.3,0-.3-.3-.3Z"/>
                <path class="st0" d="M94.9,15.8c-.6,0-1.5.2-2.5,1-.1,0-.1,0,0-.1.9-3.3,2.9-4.4,5-5-1.1-.4-4.8.1-6.1,4.4,0,.3-.3.3-.3,0-.4-2.2.5-3.9,1.7-5.7-4.2,2.5-2,6.3-2.6,7.6-.6,1.2-1.5,2.2-2.6,3-1.4,1-3.9,1.6-5.7,1.7-1.9,0-3.8-.4-5.7-1.7-2.1-1.4-3.8-3.5-5.5-7-.3-.6-.3-.5,0-.9l2.2-2.2c.4-.5.4-1.2,0-1.7-.5-.5-1.2-.5-1.7,0l-4.1,4.1c-.3.3-.3,0-.3-.1v-7.3c0-.8-.7-1.4-1.4-1.4s-1.4.7-1.4,1.4v13.5c0,.8.7,1.5,1.4,1.5s1.4-.6,1.4-1.5v-2.5l1.4-1.4c.3-.3.4-.3.6,0,1.8,3.4,3.8,5.8,6,7.4,2.3,1.5,4.7,2.1,7.1,2,2.3,0,5-.9,6.8-2.1,1.6-1.1,2.9-2.6,3.6-4.3.9-1.9,1.9-2.5,2.8-2.6.2,0,.2-.2,0-.2h0Z"/>
              </g>
              <path class="st2" d="M65.3,6.9c-.4,0-.7-.3-.7-.7s.3-.7.7-.7.7.3.7.7-.3.7-.7.7Z"/>
            </g>
            <path class="st4" d="M41.3,16.8c0,.4,0,.9-.3,1.4-.2.5-.6,1-1,1.5s-1,.9-1.7,1.2c-.7.3-1.5.5-2.5.5s-1.4,0-1.9-.2c-.6-.1-1.1-.4-1.6-.6-.5-.3-.9-.7-1.3-1.1-.4-.4-.7-.9-.9-1.4-.2-.5-.4-1.1-.6-1.7s-.2-1.2-.2-1.9c0-1.1.2-2.1.5-2.9.3-.9.8-1.6,1.4-2.2.6-.6,1.3-1.1,2.1-1.4.8-.3,1.6-.5,2.5-.5s2.1.2,2.9.7c.8.4,1.5,1,2,1.6.4.6.7,1.2.7,1.8s-.1.6-.3.8-.5.4-.8.4-.6,0-.8-.2c-.2-.2-.4-.4-.6-.9-.4-.7-.8-1.2-1.3-1.5-.5-.3-1.1-.5-1.8-.5-1.1,0-2,.4-2.7,1.3-.7.9-1,2.1-1,3.6s.2,1.9.4,2.6c.3.7.7,1.2,1.2,1.6.5.3,1.2.5,1.9.5s1.4-.2,2-.6,1-1,1.2-1.7c.1-.4.3-.6.4-.9.2-.2.4-.3.8-.3s.6.1.8.3c.2.2.3.5.3.9"/>
            <path class="st4" d="M44.1,8.9v3.7c.3-.4.6-.7.9-.9.3-.2.6-.4,1-.5s.8-.2,1.2-.2c.6,0,1.2.1,1.7.4.5.3.9.7,1.2,1.2.2.3.3.6.4,1s0,.8,0,1.3v4.8c0,.5-.1.9-.3,1.1-.2.3-.5.4-.9.4-.8,0-1.2-.5-1.2-1.5v-4.3c0-.8-.1-1.4-.4-1.9-.2-.4-.7-.6-1.4-.6s-.8.1-1.2.4c-.4.3-.6.6-.8,1.1-.1.4-.2,1-.2,2v3.3c0,.5-.1.9-.3,1.1-.2.3-.5.4-.9.4-.8,0-1.2-.5-1.2-1.5v-10.9c0-.5.1-.9.3-1.2.2-.3.5-.4.9-.4s.7.1.9.4c.2.3.3.6.3,1.1"/>
            <path class="st4" d="M52.3,9.9c-.3,0-.7-.1-.9-.3s-.4-.5-.4-.9.1-.6.4-.9c.3-.2.6-.3.9-.3s.6,0,.9.3c.2.2.4.5.4.9s-.1.7-.4.9-.5.3-.9.3M53.5,12.5v7.3c0,.5-.1.9-.4,1.1-.2.3-.5.4-.9.4s-.7-.1-.9-.4c-.2-.3-.3-.6-.3-1.1v-7.2c0-.5.1-.9.3-1.1.2-.2.5-.4.9-.4s.7.1.9.4c.2.2.4.6.4,1.1Z"/>
            <path class="st4" d="M63.4,18.2c0,.3,0,.6-.3,1s-.5.7-.9,1c-.4.3-.9.6-1.5.8-.6.2-1.2.3-2,.3-1.6,0-2.8-.5-3.7-1.4-.9-.9-1.3-2.1-1.3-3.6s.2-1.9.6-2.7,1-1.4,1.7-1.8c.8-.4,1.7-.6,2.7-.6s1.2,0,1.8.3c.5.2,1,.4,1.4.7.4.3.7.6.9,1,.2.3.3.7.3,1s-.1.6-.3.8c-.2.2-.5.3-.8.3s-.4,0-.5-.2-.3-.3-.5-.5c-.3-.5-.6-.8-1-1.1-.3-.2-.8-.4-1.3-.4-.7,0-1.3.3-1.8.9-.5.6-.7,1.4-.7,2.4s0,.9.2,1.3c.1.4.3.7.5,1,.2.3.5.5.8.6.3.1.7.2,1,.2s.9-.1,1.3-.4.7-.6,1-1.1c.2-.3.3-.5.5-.7s.4-.2.7-.2.6.1.8.4c.2.2.3.5.3.8"/>
            <path class="st4" d="M19.9,21.7l.2-.6-3.1-7.8c-.2-.4-.3-.8-.3-1s0-.4.2-.6c.1-.2.3-.3.5-.4.2-.1.4-.2.6-.2.4,0,.6.1.8.4.2.2.3.6.5,1l2.1,6.2,2-5.8c.2-.5.3-.8.4-1.1.1-.3.3-.4.4-.5.1,0,.3-.1.6-.1s.4,0,.6.1c.2.1.3.2.4.4,0,.2.1.4.1.6,0,.1,0,.3-.1.5,0,.2-.1.4-.2.7l-3.3,8.6c-.3.8-.6,1.4-.8,1.8s-.6.8-1.1,1c-.4.2-1,.4-1.8.4s-1.3,0-1.7-.2-.5-.5-.5-.9,0-.5.3-.7.4-.2.8-.2.3,0,.4,0c.2,0,.3,0,.4,0,.3,0,.5,0,.7-.1.2,0,.3-.2.5-.5.1-.2.3-.5.5-.9M7.9,19.1l-2.2-8.6v9.3c0,.5-.1.9-.3,1.2s-.5.4-.9.4-.7-.1-.9-.4c-.2-.3-.3-.6-.3-1.2v-10.7c0-.6.2-1,.5-1.2.3-.2.7-.3,1.2-.3h.8c.5,0,.9,0,1.1.1.2,0,.4.3.5.5.1.2.2.6.4,1.2l2,7.4,2-7.4c.1-.5.3-.9.4-1.2s.3-.4.5-.5.6-.1,1.1-.1h.8c.5,0,.9,0,1.2.3s.5.6.5,1.2v10.7c0,.5-.1.9-.3,1.2s-.5.4-.9.4-.7-.1-.9-.4c-.2-.3-.3-.6-.3-1.2v-9.3l-2.2,8.6c-.1.6-.3,1-.3,1.2s-.2.5-.5.7c-.2.2-.6.3-1,.3s-.6,0-.8-.2-.4-.3-.5-.5c-.1-.2-.2-.5-.3-.7,0-.3-.1-.5-.2-.8h0Z"/>
            <path class="st4" d="M74.2,15.4h4.6c0-.9-.3-1.5-.7-1.9-.4-.4-.9-.6-1.6-.6s-1.1.2-1.6.6c-.4.4-.7,1.1-.7,1.9M79.1,16.9h-4.9c0,.6.1,1.1.3,1.5.2.4.5.8.9,1,.4.2.8.3,1.2.3s.6,0,.8-.1c.2,0,.5-.2.7-.3.2-.1.4-.3.7-.5.2-.2.4-.4.8-.7.1-.1.3-.2.6-.2s.5,0,.6.2c.2.1.2.3.2.6s0,.5-.3.8c-.2.3-.4.6-.8.9-.4.3-.8.5-1.4.7s-1.2.3-1.9.3c-1.6,0-2.9-.5-3.8-1.4-.9-.9-1.3-2.2-1.3-3.8s.1-1.4.3-2.1c.2-.6.6-1.2,1-1.6.4-.4.9-.8,1.6-1.1.6-.2,1.3-.4,2.1-.4s1.8.2,2.5.6c.7.4,1.2.9,1.6,1.6.3.7.5,1.3.5,2s-.2,1.1-.6,1.2c-.4.2-.9.3-1.5.3h0Z"/>
            <path class="st4" d="M83.7,12.5v.3c.4-.6.9-1,1.5-1.3.5-.3,1.1-.4,1.8-.4s1.3.1,1.8.4.9.7,1.2,1.2c.2.3.3.6.3,1s0,.8,0,1.4v4.7c0,.5-.1.9-.4,1.1-.2.3-.5.4-.9.4s-.7-.1-.9-.4c-.2-.3-.4-.6-.4-1.1v-4.2c0-.8-.1-1.5-.4-1.9-.2-.4-.7-.7-1.4-.7s-.9.1-1.2.4c-.4.3-.6.6-.8,1.1-.1.4-.2,1.1-.2,2.1v3.2c0,.5-.1.9-.4,1.1s-.5.4-.9.4-.7-.1-.9-.4c-.2-.3-.3-.6-.3-1.1v-7.3c0-.5,0-.8.3-1.1.2-.2.5-.4.9-.4s.4,0,.6.2c.2.1.3.3.4.5s.2.5.2.8"/>
            <path class="st5" d="M111.9,18.4c0,.4,0,.7.2,1s.3.5.5.6c.2.1.4.2.7.2s.5,0,.7-.2c.2-.1.4-.3.5-.6.1-.3.2-.6.2-1s0-.7-.2-1-.3-.5-.5-.6c-.2-.1-.4-.2-.7-.2s-.5,0-.7.2-.4.4-.5.6c-.1.3-.2.6-.2,1M114.8,20.5h0c-.2,0-.4.3-.6.4-.2.1-.4.2-.6.3s-.5.1-.7.1-.7,0-1-.2c-.3-.1-.6-.4-.8-.6-.2-.3-.4-.6-.5-1-.1-.4-.2-.8-.2-1.2,0-.9.2-1.6.7-2.1.4-.5,1-.8,1.8-.8s.8,0,1.1.2c.3.1.6.4.8.7v-2.1c0-.3,0-.5.2-.7.1-.1.3-.2.5-.2s.4,0,.5.2.2.4.2.6v6.4c0,.3,0,.5-.2.6-.1.1-.3.2-.5.2s-.4,0-.5-.2c-.1-.1-.2-.4-.2-.6h0ZM105.5,16.2v.2c.3-.3.5-.6.8-.7s.6-.2,1.1-.2.7,0,1,.2c.3.2.5.4.7.7.1.2.2.4.2.6s0,.5,0,.8v2.7c0,.3,0,.5-.2.7-.1.1-.3.2-.5.2s-.4,0-.5-.2c-.1-.1-.2-.4-.2-.6v-2.4c0-.5,0-.8-.2-1.1-.1-.2-.4-.4-.8-.4s-.5,0-.7.2c-.2.1-.4.4-.5.6,0,.2-.1.6-.1,1.2v1.8c0,.3,0,.5-.2.7s-.3.2-.5.2-.4,0-.5-.2c-.1-.1-.2-.4-.2-.6v-4.2c0-.3,0-.5.2-.6s.3-.2.5-.2.2,0,.4,0c.1,0,.2.1.2.3,0,.1,0,.3,0,.4h0ZM101.3,18.4c-.2,0-.5.2-.9.2-.4,0-.7.1-.8.2-.2,0-.3.1-.4.2-.1.1-.2.3-.2.5s0,.4.2.6.4.2.6.2.6,0,.8-.2c.2-.1.4-.3.5-.5.1-.2.2-.6.2-1.1v-.2h0ZM101.4,20.5c-.4.3-.7.5-1,.6-.3.1-.7.2-1.1.2s-.7,0-1-.2-.5-.4-.6-.6-.2-.5-.2-.8.1-.7.4-1,.6-.5,1-.6c0,0,.3,0,.7-.1.4,0,.7-.1.9-.2.3,0,.5-.1.9-.2,0-.4,0-.7-.2-.8s-.4-.3-.9-.3-.6,0-.8.1c-.2.1-.4.3-.5.5-.1.2-.2.3-.3.4,0,0-.2.1-.4.1s-.3,0-.4-.2c-.1-.1-.2-.2-.2-.4,0-.3,0-.5.3-.8.2-.2.5-.4.9-.6.4-.2.9-.2,1.4-.2s1.1,0,1.5.2.6.4.8.7c.1.3.2.8.2,1.3v1.7c0,.3,0,.6.1.9s.1.5.1.6c0,.1,0,.3-.2.4-.1.1-.3.2-.5.2s-.3,0-.4-.2c-.1-.1-.3-.3-.5-.6h0Z"/>
            <path class="st4" d="M153,15.4h4.6c0-.9-.3-1.5-.7-1.9-.4-.4-.9-.6-1.6-.6s-1.1.2-1.6.6c-.4.4-.6,1.1-.7,1.9M158,16.9h-4.9c0,.6.1,1.1.4,1.5.2.4.5.8.9,1s.8.3,1.2.3.6,0,.8-.1c.2,0,.5-.2.7-.3.2-.1.4-.3.6-.5.2-.2.4-.4.8-.7.1-.1.3-.2.6-.2s.5,0,.6.2.2.3.2.6,0,.5-.3.8c-.2.3-.4.6-.8.9-.4.3-.8.5-1.4.7s-1.2.3-1.9.3c-1.6,0-2.9-.5-3.8-1.4s-1.4-2.2-1.4-3.8.1-1.4.3-2.1c.2-.6.6-1.2,1-1.6.4-.4.9-.8,1.6-1.1.6-.2,1.3-.4,2.1-.4s1.8.2,2.5.6c.7.4,1.2.9,1.6,1.6.4.7.5,1.3.5,2s-.2,1.1-.6,1.2c-.4.2-.9.3-1.5.3h0ZM146.7,17.7v2.1c0,.5-.1.9-.4,1.1s-.5.4-.9.4-.7-.1-.9-.4-.4-.6-.4-1.1v-7c0-1.1.4-1.7,1.2-1.7s.7.1.9.4c.2.3.3.7.3,1.2.3-.5.6-.9.9-1.2.3-.3.7-.4,1.3-.4s1,.1,1.5.4c.5.3.8.6.8,1.1s-.1.6-.3.8c-.2.2-.4.3-.7.3s-.3,0-.7-.2c-.4-.1-.7-.2-.9-.2s-.7.1-.9.3c-.2.2-.4.5-.6.9s-.2.8-.3,1.4c0,.5,0,1.2,0,1.9h0ZM141,16.2c0-1-.2-1.8-.7-2.4-.4-.6-1.1-.9-1.8-.9s-.9.1-1.3.4c-.4.3-.7.6-.9,1.1-.2.5-.3,1.1-.3,1.7s.1,1.2.3,1.7.5.9.9,1.1c.4.3.8.4,1.3.4.8,0,1.4-.3,1.8-.9.4-.6.7-1.4.7-2.4h0ZM143.6,16.2c0,.8-.1,1.4-.4,2.1-.2.6-.6,1.2-1,1.6-.4.5-1,.8-1.6,1-.6.2-1.3.4-2.1.4s-1.4-.1-2.1-.4-1.1-.6-1.6-1.1c-.4-.5-.8-1-1-1.6-.2-.6-.4-1.3-.4-2.1s.1-1.5.4-2.1c.2-.6.6-1.2,1-1.6.4-.4,1-.8,1.6-1,.6-.2,1.3-.4,2.1-.4s1.5.1,2.1.4,1.1.6,1.6,1.1c.4.4.8,1,1,1.6s.4,1.3.4,2.1h0ZM124.5,19.1l-2.2-8.6v9.3c0,.5-.1.9-.4,1.2-.2.3-.5.4-.9.4s-.7-.1-.9-.4c-.2-.3-.4-.6-.4-1.2v-10.7c0-.6.1-1,.5-1.2.3-.2.7-.3,1.2-.3h.9c.5,0,.9,0,1.1.1.2,0,.4.3.5.5s.2.6.4,1.2l2,7.4,2-7.4c.1-.5.3-.9.4-1.2s.3-.4.5-.5.6-.1,1.1-.1h.9c.5,0,.9,0,1.2.3s.5.6.5,1.2v10.7c0,.5-.1.9-.4,1.2-.2.3-.5.4-.9.4s-.7-.1-.9-.4c-.2-.3-.4-.6-.4-1.2v-9.3l-2.2,8.6c-.1.6-.3,1-.4,1.2,0,.3-.2.5-.5.7-.2.2-.6.3-1,.3s-.6,0-.8-.2-.4-.3-.5-.5c-.1-.2-.2-.5-.3-.7,0-.3-.1-.5-.2-.8h0Z"/>
            <path class="st6" d="M161.1,10.2c.7,0,1.2.5,1.2,1.2s-.6,1.3-1.2,1.3-1.3-.5-1.3-1.3.6-1.2,1.3-1.2ZM161.1,12.5c.6,0,1-.5,1-1.1s-.4-1.1-1-1.1-1,.5-1,1.1.4,1.1,1,1.1ZM160.6,10.7h.6c.4,0,.5.1.5.4s-.2.4-.4.4l.4.6h-.2l-.4-.6h-.2v.6h-.2v-1.5h0ZM160.9,11.4h.2c.2,0,.4,0,.4-.2s-.2-.2-.3-.2h-.3v.5Z"/>
          </g>
        </g>
      </g>
    </g>
  </g>
</svg>