<?xml version="1.0" encoding="UTF-8"?>
<svg id="Layer_1" xmlns="http://www.w3.org/2000/svg" version="1.1" viewBox="0 0 28.8 34.3">
  <!-- Generator: Adobe Illustrator 30.2.1, SVG Export Plug-In . SVG Version: 2.1.1 Build 1)  -->
  <defs>
    <style>
      .st0 {
        fill: #f6b11a;
      }

      .st0, .st1, .st2, .st3, .st4 {
        fill-rule: evenodd;
      }

      .st1 {
        fill: #fff;
      }

      .st2 {
        fill: #df2728;
      }

      .st5, .st4 {
        isolation: isolate;
      }

      .st3 {
        fill: #e9e8e8;
      }

      .st4 {
        fill: #dfdfde;
        mix-blend-mode: multiply;
      }
    </style>
  </defs>
  <g class="st5">
    <g id="Layer_2">
      <g id="Layer_1-2">
        <g>
          <path class="st4" d="M14.5,4.7c6.3,0,11.5,4.3,13,10.1v.3c.3,1,.4,2,.4,3.1,0,2.2-.5,4.4-1.5,6.2.2.4.3.8.5,1.1v.4c.1,0-.2.3-.2.3-1.2,1-2.8,2.2-4.3,2.8-1.4,1-3.1,1.8-4.8,2.2-1.3.3-2.6.5-3.9.4-2.8-.2-5.4-1.2-7.6-3-2.2-1.8-3.8-4.1-4.6-6.8-.9-3-.6-6.1.6-9h0c1.2-2.7,3-4.9,5.5-6.3h0c-.5-.6-.7-.9-.8-1.7,0-1.5,1.3-2.4,2.6-1.7h0c.3.2.6.4.8.7.4-.4,1-.5,1.6-.2.4.2.8.7,1,1.1.5,0,1.1,0,1.6,0h0Z"/>
          <path class="st1" d="M14.3,4.4c6.3,0,11.5,4.3,13,10.1v.3c.3,1,.4,2,.4,3.1,0,2.2-.5,4.4-1.5,6.2.2.4.3.8.5,1.1v.4c.1,0-.2.3-.2.3-1.2,1-2.8,2.2-4.3,2.8-1.4,1-3.1,1.8-4.8,2.2-1.3.3-2.6.5-3.9.4-2.8-.2-5.4-1.2-7.6-3-2.2-1.8-3.8-4.1-4.6-6.8-.9-3-.6-6.1.6-9h0c1.2-2.7,3-4.9,5.5-6.3h0c-.5-.6-.7-.9-.8-1.7,0-1.5,1.3-2.4,2.6-1.7h0c.3.2.6.4.8.7.4-.4,1-.5,1.6-.2.4.2.8.7,1,1.1.5,0,1.1,0,1.6,0h0Z"/>
          <path class="st0" d="M13.4,5c5.6,0,10.6,2.7,12.8,8.4-3.9,4.4-12.1,4.6-14.2-1.2.5-1.1.9-2.3,1.4-3.4.7.2,1.4.3,2,.5.2-.9-.4-1.6-.9-1.8-.5-.2-.4-.3-.4-.9,0-.7-.1-1.3-.7-1.5-.2-.1-.2-.2,0-.2h0Z"/>
          <path class="st0" d="M27,16.7c0-.7-.2-1.4-.4-2-2.1,1.9-4.7,2.9-7.1,4,.5.3.9.7,1.4,1,2.1-.7,4.2-1.6,6.1-3h0Z"/>
          <path class="st0" d="M27.1,17.2c-1.5,1.2-3.3,2-5.3,2.5.5.4,1,.9,1.6,1.3,1.4-.5,2.5-1,3.6-1.7,0-.6.1-1.2,0-2.2Z"/>
          <path class="st0" d="M26.9,20.1c-.1.8-.3,1.4-.5,2.1-.5.3-1.2.5-1.7.7-.4-.5-.7-1-1-1.5,1.1-.3,2.3-.8,3.3-1.3h0Z"/>
          <path class="st0" d="M26.1,22.9c-.2.5-.5,1-.7,1.4-.2-.4-.3-.7-.5-1,.3-.1.9-.3,1.2-.4Z"/>
          <path class="st2" d="M15.4,9.1c-.1-.6-.6-1.1-1.1-1.3-.6-.2-.6-.3-.6-1,0-.7-.2-1-.5-1.2-.2-.2-.6-.2-.6,0-.1.3-.2,0-.3-.2-.3-.8-.6-1.2-1-1.5-.5-.3-1.1,0-1,.7,0,.3,0,.3-.2,0-.3-.5-.8-.9-1.2-1.2-.9-.5-1.8,0-1.7,1.1,0,.6.2.8.7,1.3.3.4.4.5,0,.8-2.3,1.2-4.2,3.2-5.5,6.1-4.4,11.1,6.4,21.1,16.3,17-5.5.7-10-1.2-12.6-4.3h0c-2.5-2.9-3.7-7.3-2-12.8,1-3.1,2.8-5.5,5.8-6.1,1.2-.2,2.5.1,3.6,1.5-1.7,1.1-2.5,2.9-2.3,5,.5,2.5,2.4,4.3,6.1,5.5,3.4.9,6.2,2.6,7.8,6.6,0,0-.3.3-.4.4l.5.5c.3-.2.6-.5.9-.7-1.3-3.6-3.5-5.9-6.4-6.7,3.1-.6,5.4-2,7-4-4.5,3.7-12.5,3.9-14.6-2.5.8.4,1.5.6,2-.2.2-.4,0-1-.3-1.8-.1-.4-.2-1.1.4-1.1.4,0,.7,0,1.1.2.2,0,.2,0,.2-.2h0Z"/>
          <path class="st2" d="M11.9,7.9c-.3-.3-.6-.4-.9-.4-.4,0-.4.6,0,.6.4,0,.6,0,1-.3Z"/>
          <path class="st1" d="M15.7,11.8c.1-1.9,1.3-3.5,2.4-3.5s2,1.1,2.5,3.3c.5,2.2-1,3.4-2.4,3.5-1.4,0-2.7-1.4-2.5-3.3Z"/>
          <path class="st3" d="M17.2,8.8c-1.1,1-.8,1.5.1.1.2-.3,0-.3-.1-.1Z"/>
          <path class="st0" d="M21.6,15.5c-.9.1-1.8,0-2.6-.5-.6-.4-1.1-1.1-1.2-1.9,0-.8.2-1.6.8-2.1.7-.7,1.7-.9,2.7-.8,1.4.2,3.5.8,3.7,2.4.1.7-.4,1.4-.9,1.8-.7.6-1.6,1-2.5,1.1h0Z"/>
          <path class="st1" d="M21.5,15.3c1.9-.3,3.4-1.7,3.2-2.7s-1.3-1.9-3.5-2.2c-2.3-.3-3.3,1.3-3.2,2.7,0,1.3,1.7,2.5,3.5,2.2Z"/>
          <path class="st3" d="M18.4,11.8c.7-1.2,1.2-1,.1.1-.2.2-.3.1-.1-.1Z"/>
          <path class="st2" d="M7.8,17c-.7,3.8,0,6.9,3.3,9.8,4.5,3.3,11.2,1.3,14-1.5-.2-1-.8-2-1.6-2.9-3.1-3.5-4.8.5-5.2,3.6-.4-1.6,0-3.4.9-4.4-1.2.3-3.1,2.3-5.6,2.4-3,0-5.8-1.6-5.7-7h0ZM9.3,12c-.9,3.7.7,4,2.4,4.4-4.6,1.8-2.6,7.1,1.7,7.1,6.2-.5,6.7-8.7,12.6,1.9-3.9,4-11.9,5.6-16.3,1.1-.8-.1-1.1,0-1.7.2-.7-1-.5-2.2-.3-3.3-1.5-5.3-.8-9,1.6-11.4Z"/>
          <path class="st2" d="M22.1,24.2c.3,0,.6.1.7.5,0,.3-.1.6-.5.7-.3,0-.6-.1-.7-.5,0-.3.1-.6.5-.7Z"/>
          <g>
            <path class="st2" d="M18.2,20.5c.5-.8.1-1.2-.5-1.2-.9.1-1.9,0-2.8-.8-2.1-1.9-4.3-1.7-5,.8-.4,1.6.9,3.1,2.6,3.5,1.8.4,4.6-.6,5.8-2.3h0Z"/>
            <path class="st0" d="M11.8,20c-.4-.2-.6-.7-.4-1,.2-.3.6-.3,1.1,0,.4.2.6.7.4,1-.2.3-.6.3-1.1,0Z"/>
          </g>
        </g>
      </g>
    </g>
  </g>
</svg>